<svg width="800" height="800" viewBox="0 0 800 800" fill="none" xmlns="http://www.w3.org/2000/svg">
    <path d="M333.333 683.333C333.333 625.87 356.161 570.76 396.794 530.127C437.426 489.494 492.536 466.667 550 466.667C555.551 466.335 561.116 466.335 566.667 466.667V166.667H500V100H133.333C124.493 100 116.014 103.512 109.763 109.763C103.512 116.014 100 124.493 100 133.333V666.667C100 675.507 103.512 683.986 109.763 690.237C116.014 696.488 124.493 700 133.333 700H333.333C333.002 694.449 333.002 688.884 333.333 683.333Z" fill="#384EB7" fill-opacity="0.2"/>
    <path d="M500 633.333L566.667 700L700 566.667" stroke="#483EA8" stroke-width="66.6667" stroke-linecap="round" stroke-linejoin="round"/>
    <path d="M366.667 700H133.333C124.493 700 116.014 696.488 109.763 690.237C103.512 683.986 100 675.507 100 666.667V133.333C100 124.493 103.512 116.014 109.763 109.763C116.014 103.512 124.493 100 133.333 100H500L566.667 166.667V500" stroke="#483EA8" stroke-width="66.6667" stroke-linecap="round" stroke-linejoin="round"/>
    <path d="M233.333 433.333H333.333M233.333 300H433.333M500 100V166.667H566.667L500 100Z" stroke="#483EA8" stroke-width="66.6667" stroke-linecap="round" stroke-linejoin="round"/>
</svg>
