<svg width="36" height="36" viewBox="0 0 36 36" fill="none" xmlns="http://www.w3.org/2000/svg">
    <path d="M18 34.125C26.9056 34.125 34.125 26.9056 34.125 18C34.125 9.09441 26.9056 1.875 18 1.875C9.09441 1.875 1.875 9.09441 1.875 18C1.875 26.9056 9.09441 34.125 18 34.125Z" fill="#E1F5FE"/>
    <path d="M18 34.5C8.90175 34.5 1.5 27.0982 1.5 18C1.5 8.90175 8.90175 1.5 18 1.5C22.6642 1.5 27.1312 3.4875 30.2565 6.95325C30.396 7.107 30.3832 7.344 30.2295 7.48275C30.075 7.6215 29.838 7.60875 29.7 7.45575C26.7165 4.1475 22.4527 2.25 18 2.25C9.31575 2.25 2.25 9.315 2.25 18C2.25 26.685 9.31575 33.75 18 33.75C26.6843 33.75 33.75 26.685 33.75 18C33.75 16.2757 33.4733 14.58 32.9265 12.96C32.8598 12.7635 32.9655 12.5512 33.1613 12.4852C33.3623 12.4192 33.5707 12.5243 33.6367 12.7208C34.2097 14.418 34.5 16.194 34.5 18C34.5 27.0982 27.0982 34.5 18 34.5Z" fill="#0277BD"/>
    <path d="M18 33.75C9.31575 33.75 2.25 26.685 2.25 18C2.25 9.315 9.31575 2.25 18 2.25C22.3755 2.25 26.5905 4.0935 29.5642 7.30725C29.7052 7.4595 29.6955 7.6965 29.544 7.8375C29.3917 7.97775 29.154 7.9695 29.0138 7.8165C26.1818 4.75575 22.1678 3 18 3C9.729 3 3 9.729 3 18C3 26.271 9.729 33 18 33C26.271 33 33 26.271 33 18C33 16.4775 32.7728 14.9768 32.3258 13.539C32.2643 13.341 32.3745 13.131 32.5725 13.0695C32.7698 13.0095 32.9812 13.119 33.042 13.3162C33.5122 14.826 33.75 16.4017 33.75 18C33.75 26.685 26.6843 33.75 18 33.75Z" fill="white"/>
    <path d="M16.188 25.3755C16.857 26.0415 18.0165 26.0415 18.6863 25.3755L33.2265 10.8937C33.9248 10.1992 33.9248 9.069 33.2265 8.3745C32.5575 7.7085 31.398 7.7085 30.729 8.3745L18.0053 21.0458C17.706 21.3443 17.1683 21.3443 16.8683 21.0458L12.021 16.2188C11.6865 15.8857 11.2433 15.7028 10.7723 15.7028C10.3013 15.7028 9.85725 15.8857 9.5235 16.2188C8.82525 16.9132 8.82525 18.0435 9.5235 18.738L16.188 25.3755Z" fill="#64FFDA"/>
    <path d="M17.4368 26.2539C16.8855 26.2539 16.3335 26.0499 15.9233 25.6412L9.25877 19.0037C8.85002 18.5972 8.62427 18.0549 8.62427 17.4774C8.62427 16.9007 8.85002 16.3592 9.25877 15.9527C10.0665 15.1472 11.4743 15.1457 12.285 15.9527L17.1323 20.7797C17.286 20.9327 17.5868 20.9334 17.7398 20.7797L30.4643 8.10768C31.2848 7.29093 32.67 7.29093 33.4905 8.10768C33.8993 8.51418 34.125 9.05643 34.125 9.63318C34.125 10.2099 33.8993 10.7514 33.4905 11.1579L18.951 25.6412C18.5408 26.0499 17.988 26.2539 17.4368 26.2539ZM10.7723 16.0779C10.401 16.0779 10.0515 16.2227 9.78827 16.4844C9.52202 16.7499 9.37427 17.1024 9.37427 17.4782C9.37427 17.8539 9.52052 18.2072 9.78752 18.4719L16.452 25.1102C16.9763 25.6314 17.8973 25.6322 18.4215 25.1102L32.9618 10.6277C33.2273 10.3629 33.375 10.0097 33.375 9.63393C33.375 9.25818 33.2288 8.90493 32.9618 8.64018C32.4375 8.11818 31.5173 8.11743 30.993 8.64018L18.2693 21.3122C17.8268 21.7547 17.0468 21.7547 16.6028 21.3122L11.7563 16.4852C11.493 16.2219 11.1435 16.0779 10.7723 16.0779Z" fill="#0277BD"/>
    <path d="M9.75 17.8534C9.543 17.8534 9.375 17.6854 9.375 17.4784C9.375 17.1034 9.522 16.7501 9.789 16.4846C10.0523 16.2221 10.401 16.0781 10.773 16.0781C10.98 16.0781 11.148 16.2461 11.148 16.4531C11.148 16.6601 10.98 16.8281 10.773 16.8281C10.6013 16.8281 10.4408 16.8949 10.3185 17.0156C10.1948 17.1401 10.1258 17.3044 10.1258 17.4784C10.125 17.6861 9.957 17.8534 9.75 17.8534Z" fill="white"/>
    <path d="M19.6208 20.8712C19.5248 20.8712 19.428 20.8344 19.3553 20.7609C19.2098 20.6139 19.2098 20.3769 19.3568 20.2299L29.9093 9.72015C30.0555 9.57465 30.2933 9.5739 30.4395 9.7209C30.585 9.8679 30.585 10.1049 30.438 10.2519L19.8855 20.7617C19.812 20.8344 19.7168 20.8712 19.6208 20.8712Z" fill="white"/>
</svg>
