<svg width="800" height="800" viewBox="0 0 800 800" fill="none" xmlns="http://www.w3.org/2000/svg">
    <path fill-rule="evenodd" clip-rule="evenodd" d="M640.233 206.9C646.305 200.613 649.665 192.193 649.589 183.453C649.513 174.713 646.007 166.353 639.827 160.172C633.647 153.992 625.287 150.486 616.547 150.41C607.807 150.334 599.387 153.694 593.1 159.766L400 352.866L206.9 159.766C200.613 153.694 192.193 150.334 183.453 150.41C174.713 150.486 166.353 153.992 160.173 160.172C153.992 166.353 150.487 174.713 150.411 183.453C150.335 192.193 153.695 200.613 159.767 206.9L352.867 400L159.767 593.1C156.583 596.174 154.044 599.853 152.297 603.919C150.55 607.986 149.63 612.36 149.592 616.786C149.553 621.212 150.397 625.601 152.073 629.698C153.749 633.795 156.224 637.516 159.353 640.646C162.483 643.776 166.205 646.251 170.301 647.927C174.398 649.603 178.787 650.446 183.213 650.408C187.639 650.369 192.013 649.45 196.08 647.703C200.147 645.956 203.825 643.417 206.9 640.233L400 447.133L593.1 640.233C599.387 646.305 607.807 649.665 616.547 649.589C625.287 649.513 633.647 646.007 639.827 639.827C646.007 633.647 649.513 625.286 649.589 616.546C649.665 607.806 646.305 599.386 640.233 593.1L447.133 400L640.233 206.9Z" fill="#E41D1D"/>
</svg>
