<svg width="800" height="801" viewBox="0 0 800 801" fill="none" xmlns="http://www.w3.org/2000/svg">
    <path d="M200 483.833H466.667" stroke="#483EA8" stroke-width="50" stroke-linecap="round"/>
    <path d="M200 600.5H383.333" stroke="#483EA8" stroke-width="50" stroke-linecap="round"/>
    <path d="M433.333 83.8335V167.167C433.333 245.734 433.333 285.018 457.74 309.426C482.15 333.833 521.433 333.833 600 333.833H733.333" stroke="#483EA8" stroke-width="50"/>
    <path d="M91.6665 333.833C91.6665 320.026 80.4735 308.833 66.6665 308.833C52.8595 308.833 41.6665 320.026 41.6665 333.833H91.6665ZM708.333 467.167C708.333 480.973 719.526 492.167 733.333 492.167C747.14 492.167 758.333 480.973 758.333 467.167H708.333ZM45.1695 198.053C43.8182 211.794 53.8615 224.028 67.6022 225.38C81.3432 226.732 93.5779 216.688 94.9295 202.947L45.1695 198.053ZM754.83 602.947C756.183 589.207 746.137 576.97 732.397 575.62C718.657 574.27 706.423 584.313 705.07 598.053L754.83 602.947ZM466.667 708.833H333.333V758.833H466.667V708.833ZM91.6665 467.167V333.833H41.6665V467.167H91.6665ZM708.333 452.597V467.167H758.333V452.597H708.333ZM496.373 154.204L628.333 272.967L661.78 235.802L529.823 117.039L496.373 154.204ZM758.333 452.597C758.333 396.317 758.836 360.683 744.636 328.799L698.963 349.14C707.83 369.05 708.333 391.9 708.333 452.597H758.333ZM628.333 272.967C673.446 313.57 690.097 329.233 698.963 349.14L744.636 328.799C730.436 296.914 703.613 273.451 661.78 235.802L628.333 272.967ZM334.327 92.1667C387.053 92.1667 406.95 92.5527 424.683 99.3577L442.597 52.6767C414.203 41.7807 383.267 42.1667 334.327 42.1667V92.1667ZM529.823 117.039C493.623 84.4594 470.99 63.5714 442.597 52.6767L424.683 99.3577C442.423 106.164 457.383 119.112 496.373 154.204L529.823 117.039ZM333.333 708.833C269.773 708.833 224.617 708.78 190.362 704.173C156.825 699.667 137.504 691.21 123.397 677.103L88.0412 712.46C112.987 737.403 144.618 748.473 183.699 753.73C222.061 758.887 271.186 758.833 333.333 758.833V708.833ZM41.6665 467.167C41.6665 529.313 41.6135 578.44 46.7709 616.8C52.0252 655.88 63.0959 687.513 88.0412 712.46L123.397 677.103C109.29 662.997 100.834 643.673 96.3252 610.14C91.7195 575.883 91.6665 530.727 91.6665 467.167H41.6665ZM466.667 758.833C528.813 758.833 577.94 758.887 616.3 753.73C655.38 748.473 687.013 737.403 711.96 712.46L676.603 677.103C662.496 691.21 643.173 699.667 609.64 704.173C575.383 708.78 530.227 708.833 466.667 708.833V758.833ZM334.327 42.1667C271.846 42.1667 222.481 42.1141 183.962 47.2691C144.744 52.5181 113.006 63.5767 88.0412 88.5414L123.397 123.897C137.484 109.809 156.865 101.342 190.595 96.8274C225.025 92.2194 270.437 92.1667 334.327 92.1667V42.1667ZM94.9295 202.947C98.9769 161.802 107.682 139.612 123.397 123.897L88.0412 88.5414C60.2109 116.372 49.6479 152.524 45.1695 198.053L94.9295 202.947ZM705.07 598.053C701.023 639.197 692.316 661.387 676.603 677.103L711.96 712.46C739.79 684.627 750.353 648.477 754.83 602.947L705.07 598.053Z" fill="#483EA8"/>
</svg>
