<svg xmlns="http://www.w3.org/2000/svg" xmlns:xlink="http://www.w3.org/1999/xlink" viewBox="0 0 440 440" width="440" height="440" preserveAspectRatio="xMidYMid meet" style="width: 100%; height: 100%; transform: translate3d(0px, 0px, 0px); content-visibility: visible;"><defs><clipPath id="__lottie_element_2"><rect width="440" height="440" x="0" y="0"></rect></clipPath><clipPath id="__lottie_element_16"><path d="M0,0 L199,0 L199,174 L0,174z"></path></clipPath><clipPath id="__lottie_element_32"><path d="M0,0 L199,0 L199,174 L0,174z"></path></clipPath><clipPath id="__lottie_element_48"><path d="M0,0 L199,0 L199,174 L0,174z"></path></clipPath><clipPath id="__lottie_element_64"><path d="M0,0 L199,0 L199,174 L0,174z"></path></clipPath><clipPath id="__lottie_element_80"><path d="M0,0 L199,0 L199,174 L0,174z"></path></clipPath><clipPath id="__lottie_element_96"><path d="M0,0 L199,0 L199,174 L0,174z"></path></clipPath><clipPath id="__lottie_element_112"><path d="M0,0 L199,0 L199,174 L0,174z"></path></clipPath><clipPath id="__lottie_element_128"><path d="M0,0 L199,0 L199,174 L0,174z"></path></clipPath></defs><g clip-path="url(#__lottie_element_2)"><g transform="matrix(1,0,0,1,220,393)" opacity="1" style="display: block;"><g opacity="1" transform="matrix(1,0,0,1,0,0)"><path fill="rgb(246,247,248)" fill-opacity="1" d=" M0,-25 C95.47869873046875,-25 173,-13.797499656677246 173,0 C173,13.797499656677246 95.47869873046875,25 0,25 C-95.47869873046875,25 -173,13.797499656677246 -173,0 C-173,-13.797499656677246 -95.47869873046875,-25 0,-25z"></path></g></g><g transform="matrix(1,0,0,1,220,282)" opacity="1" style="display: block;"><g opacity="1" transform="matrix(1,0,0,1,0,0)"><path fill="rgb(134,205,255)" fill-opacity="1" d=" M111.08999633789062,87 C111.08999633789062,87 -111.08999633789062,87 -111.08999633789062,87 C-118.22000122070312,87 -124,81.22000122070312 -124,74.08999633789062 C-124,74.08999633789062 -124,-74.08999633789062 -124,-74.08999633789062 C-124,-81.22000122070312 -118.22000122070312,-87 -111.08999633789062,-87 C-111.08999633789062,-87 111.08999633789062,-87 111.08999633789062,-87 C118.22000122070312,-87 124,-81.22000122070312 124,-74.08999633789062 C124,-74.08999633789062 124,74.08999633789062 124,74.08999633789062 C124,81.22000122070312 118.22000122070312,87 111.08999633789062,87z"></path></g></g><g transform="matrix(1,0,0,1,220,270)" opacity="1" style="display: block;"><g opacity="1" transform="matrix(1,0,0,1,0,0)"><path fill="rgb(226,232,234)" fill-opacity="1" d=" M86.08999633789062,124 C86.08999633789062,124 -86.08999633789062,124 -86.08999633789062,124 C-93.22000122070312,124 -99,118.23999786376953 -99,111.13999938964844 C-99,111.13999938964844 -99,-111.13999938964844 -99,-111.13999938964844 C-99,-118.23999786376953 -93.22000122070312,-124 -86.08999633789062,-124 C-86.08999633789062,-124 86.08999633789062,-124 86.08999633789062,-124 C93.22000122070312,-124 99,-118.23999786376953 99,-111.13999938964844 C99,-111.13999938964844 99,111.13999938964844 99,111.13999938964844 C99,118.23999786376953 93.22000122070312,124 86.08999633789062,124z"></path></g></g><g clip-path="url(#__lottie_element_128)" transform="matrix(1,0,0,1,120,170)" opacity="1" style="display: none;"><g transform="matrix(1,0,0,1,99.5,87)" opacity="1" style="display: block;"><g opacity="1" transform="matrix(1,0,0,1,0,0)"><path fill="rgb(255,255,255)" fill-opacity="1" d=" M86.58999633789062,87 C86.58999633789062,87 -86.58999633789062,87 -86.58999633789062,87 C-93.72000122070312,87 -99.5,81.22000122070312 -99.5,74.08999633789062 C-99.5,74.08999633789062 -99.5,-74.08999633789062 -99.5,-74.08999633789062 C-99.5,-81.22000122070312 -93.72000122070312,-87 -86.58999633789062,-87 C-86.58999633789062,-87 86.58999633789062,-87 86.58999633789062,-87 C93.72000122070312,-87 99.5,-81.22000122070312 99.5,-74.08999633789062 C99.5,-74.08999633789062 99.5,74.08999633789062 99.5,74.08999633789062 C99.5,81.22000122070312 93.72000122070312,87 86.58999633789062,87z"></path></g></g><g transform="matrix(1,0,0,1,56,47.25)" opacity="1" style="display: block;"><g opacity="1" transform="matrix(1,0,0,1,0,0)"><path fill="rgb(226,232,234)" fill-opacity="1" d=" M37.5,6.5 C37.5,6.5 -37.5,6.5 -37.5,6.5 C-40.810001373291016,6.5 -43.5,3.809999942779541 -43.5,0.5 C-43.5,0.5 -43.5,-0.5 -43.5,-0.5 C-43.5,-3.809999942779541 -40.810001373291016,-6.5 -37.5,-6.5 C-37.5,-6.5 37.5,-6.5 37.5,-6.5 C40.810001373291016,-6.5 43.5,-3.809999942779541 43.5,-0.5 C43.5,-0.5 43.5,0.5 43.5,0.5 C43.5,3.809999942779541 40.810001373291016,6.5 37.5,6.5z"></path></g></g><g transform="matrix(1,0,0,1,56,26)" opacity="1" style="display: block;"><g opacity="1" transform="matrix(1,0,0,1,0,0)"><path fill="rgb(226,232,234)" fill-opacity="1" d=" M37.5,6 C37.5,6 -37.5,6 -37.5,6 C-40.810001373291016,6 -43.5,3.309999942779541 -43.5,0 C-43.5,0 -43.5,0 -43.5,0 C-43.5,-3.309999942779541 -40.810001373291016,-6 -37.5,-6 C-37.5,-6 37.5,-6 37.5,-6 C40.810001373291016,-6 43.5,-3.309999942779541 43.5,0 C43.5,0 43.5,0 43.5,0 C43.5,3.309999942779541 40.810001373291016,6 37.5,6z"></path></g></g><g transform="matrix(1,0,0,1,155.5,32)" opacity="1" style="display: block;"><g opacity="1" transform="matrix(1,0,0,1,0,0)"><path fill="rgb(226,232,234)" fill-opacity="1" d=" M21.6200008392334,12 C21.6200008392334,12 -21.6200008392334,12 -21.6200008392334,12 C-26.799999237060547,12 -31,7.800000190734863 -31,2.619999885559082 C-31,2.619999885559082 -31,-2.619999885559082 -31,-2.619999885559082 C-31,-7.800000190734863 -26.799999237060547,-12 -21.6200008392334,-12 C-21.6200008392334,-12 21.6200008392334,-12 21.6200008392334,-12 C26.799999237060547,-12 31,-7.800000190734863 31,-2.619999885559082 C31,-2.619999885559082 31,2.619999885559082 31,2.619999885559082 C31,7.800000190734863 26.799999237060547,12 21.6200008392334,12z"></path></g></g></g><g clip-path="url(#__lottie_element_112)" transform="matrix(1,0,0,1,120,233)" opacity="0" style="display: none;"><g transform="matrix(1,0,0,1,99.5,87)" opacity="1" style="display: block;"><g opacity="1" transform="matrix(1,0,0,1,0,0)"><path fill="rgb(255,255,255)" fill-opacity="1" d=" M86.58999633789062,87 C86.58999633789062,87 -86.58999633789062,87 -86.58999633789062,87 C-93.72000122070312,87 -99.5,81.22000122070312 -99.5,74.08999633789062 C-99.5,74.08999633789062 -99.5,-74.08999633789062 -99.5,-74.08999633789062 C-99.5,-81.22000122070312 -93.72000122070312,-87 -86.58999633789062,-87 C-86.58999633789062,-87 86.58999633789062,-87 86.58999633789062,-87 C93.72000122070312,-87 99.5,-81.22000122070312 99.5,-74.08999633789062 C99.5,-74.08999633789062 99.5,74.08999633789062 99.5,74.08999633789062 C99.5,81.22000122070312 93.72000122070312,87 86.58999633789062,87z"></path></g></g><g transform="matrix(1,0,0,1,56,47.25)" opacity="1" style="display: block;"><g opacity="1" transform="matrix(1,0,0,1,0,0)"><path fill="rgb(226,232,234)" fill-opacity="1" d=" M37.5,6.5 C37.5,6.5 -37.5,6.5 -37.5,6.5 C-40.810001373291016,6.5 -43.5,3.809999942779541 -43.5,0.5 C-43.5,0.5 -43.5,-0.5 -43.5,-0.5 C-43.5,-3.809999942779541 -40.810001373291016,-6.5 -37.5,-6.5 C-37.5,-6.5 37.5,-6.5 37.5,-6.5 C40.810001373291016,-6.5 43.5,-3.809999942779541 43.5,-0.5 C43.5,-0.5 43.5,0.5 43.5,0.5 C43.5,3.809999942779541 40.810001373291016,6.5 37.5,6.5z"></path></g></g><g transform="matrix(1,0,0,1,56,26)" opacity="1" style="display: block;"><g opacity="1" transform="matrix(1,0,0,1,0,0)"><path fill="rgb(226,232,234)" fill-opacity="1" d=" M37.5,6 C37.5,6 -37.5,6 -37.5,6 C-40.810001373291016,6 -43.5,3.309999942779541 -43.5,0 C-43.5,0 -43.5,0 -43.5,0 C-43.5,-3.309999942779541 -40.810001373291016,-6 -37.5,-6 C-37.5,-6 37.5,-6 37.5,-6 C40.810001373291016,-6 43.5,-3.309999942779541 43.5,0 C43.5,0 43.5,0 43.5,0 C43.5,3.309999942779541 40.810001373291016,6 37.5,6z"></path></g></g><g transform="matrix(1,0,0,1,155.5,32)" opacity="1" style="display: block;"><g opacity="1" transform="matrix(1,0,0,1,0,0)"><path fill="rgb(226,232,234)" fill-opacity="1" d=" M21.6200008392334,12 C21.6200008392334,12 -21.6200008392334,12 -21.6200008392334,12 C-26.799999237060547,12 -31,7.800000190734863 -31,2.619999885559082 C-31,2.619999885559082 -31,-2.619999885559082 -31,-2.619999885559082 C-31,-7.800000190734863 -26.799999237060547,-12 -21.6200008392334,-12 C-21.6200008392334,-12 21.6200008392334,-12 21.6200008392334,-12 C26.799999237060547,-12 31,-7.800000190734863 31,-2.619999885559082 C31,-2.619999885559082 31,2.619999885559082 31,2.619999885559082 C31,7.800000190734863 26.799999237060547,12 21.6200008392334,12z"></path></g></g></g><g clip-path="url(#__lottie_element_96)" style="display: none;" transform="matrix(1,0,0,1,120,170)" opacity="1"><g transform="matrix(1,0,0,1,99.5,87)" opacity="1" style="display: block;"><g opacity="1" transform="matrix(1,0,0,1,0,0)"><path fill="rgb(255,255,255)" fill-opacity="1" d=" M86.58999633789062,87 C86.58999633789062,87 -86.58999633789062,87 -86.58999633789062,87 C-93.72000122070312,87 -99.5,81.22000122070312 -99.5,74.08999633789062 C-99.5,74.08999633789062 -99.5,-74.08999633789062 -99.5,-74.08999633789062 C-99.5,-81.22000122070312 -93.72000122070312,-87 -86.58999633789062,-87 C-86.58999633789062,-87 86.58999633789062,-87 86.58999633789062,-87 C93.72000122070312,-87 99.5,-81.22000122070312 99.5,-74.08999633789062 C99.5,-74.08999633789062 99.5,74.08999633789062 99.5,74.08999633789062 C99.5,81.22000122070312 93.72000122070312,87 86.58999633789062,87z"></path></g></g><g transform="matrix(1,0,0,1,56,47.25)" opacity="1" style="display: block;"><g opacity="1" transform="matrix(1,0,0,1,0,0)"><path fill="rgb(226,232,234)" fill-opacity="1" d=" M37.5,6.5 C37.5,6.5 -37.5,6.5 -37.5,6.5 C-40.810001373291016,6.5 -43.5,3.809999942779541 -43.5,0.5 C-43.5,0.5 -43.5,-0.5 -43.5,-0.5 C-43.5,-3.809999942779541 -40.810001373291016,-6.5 -37.5,-6.5 C-37.5,-6.5 37.5,-6.5 37.5,-6.5 C40.810001373291016,-6.5 43.5,-3.809999942779541 43.5,-0.5 C43.5,-0.5 43.5,0.5 43.5,0.5 C43.5,3.809999942779541 40.810001373291016,6.5 37.5,6.5z"></path></g></g><g transform="matrix(1,0,0,1,56,26)" opacity="1" style="display: block;"><g opacity="1" transform="matrix(1,0,0,1,0,0)"><path fill="rgb(226,232,234)" fill-opacity="1" d=" M37.5,6 C37.5,6 -37.5,6 -37.5,6 C-40.810001373291016,6 -43.5,3.309999942779541 -43.5,0 C-43.5,0 -43.5,0 -43.5,0 C-43.5,-3.309999942779541 -40.810001373291016,-6 -37.5,-6 C-37.5,-6 37.5,-6 37.5,-6 C40.810001373291016,-6 43.5,-3.309999942779541 43.5,0 C43.5,0 43.5,0 43.5,0 C43.5,3.309999942779541 40.810001373291016,6 37.5,6z"></path></g></g><g transform="matrix(1,0,0,1,155.5,32)" opacity="1" style="display: block;"><g opacity="1" transform="matrix(1,0,0,1,0,0)"><path fill="rgb(226,232,234)" fill-opacity="1" d=" M21.6200008392334,12 C21.6200008392334,12 -21.6200008392334,12 -21.6200008392334,12 C-26.799999237060547,12 -31,7.800000190734863 -31,2.619999885559082 C-31,2.619999885559082 -31,-2.619999885559082 -31,-2.619999885559082 C-31,-7.800000190734863 -26.799999237060547,-12 -21.6200008392334,-12 C-21.6200008392334,-12 21.6200008392334,-12 21.6200008392334,-12 C26.799999237060547,-12 31,-7.800000190734863 31,-2.619999885559082 C31,-2.619999885559082 31,2.619999885559082 31,2.619999885559082 C31,7.800000190734863 26.799999237060547,12 21.6200008392334,12z"></path></g></g></g><g clip-path="url(#__lottie_element_80)" style="display: none;" transform="matrix(1,0,0,1,120,233)" opacity="0"><g transform="matrix(1,0,0,1,99.5,87)" opacity="1" style="display: block;"><g opacity="1" transform="matrix(1,0,0,1,0,0)"><path fill="rgb(255,255,255)" fill-opacity="1" d=" M86.58999633789062,87 C86.58999633789062,87 -86.58999633789062,87 -86.58999633789062,87 C-93.72000122070312,87 -99.5,81.22000122070312 -99.5,74.08999633789062 C-99.5,74.08999633789062 -99.5,-74.08999633789062 -99.5,-74.08999633789062 C-99.5,-81.22000122070312 -93.72000122070312,-87 -86.58999633789062,-87 C-86.58999633789062,-87 86.58999633789062,-87 86.58999633789062,-87 C93.72000122070312,-87 99.5,-81.22000122070312 99.5,-74.08999633789062 C99.5,-74.08999633789062 99.5,74.08999633789062 99.5,74.08999633789062 C99.5,81.22000122070312 93.72000122070312,87 86.58999633789062,87z"></path></g></g><g transform="matrix(1,0,0,1,56,47.25)" opacity="1" style="display: block;"><g opacity="1" transform="matrix(1,0,0,1,0,0)"><path fill="rgb(226,232,234)" fill-opacity="1" d=" M37.5,6.5 C37.5,6.5 -37.5,6.5 -37.5,6.5 C-40.810001373291016,6.5 -43.5,3.809999942779541 -43.5,0.5 C-43.5,0.5 -43.5,-0.5 -43.5,-0.5 C-43.5,-3.809999942779541 -40.810001373291016,-6.5 -37.5,-6.5 C-37.5,-6.5 37.5,-6.5 37.5,-6.5 C40.810001373291016,-6.5 43.5,-3.809999942779541 43.5,-0.5 C43.5,-0.5 43.5,0.5 43.5,0.5 C43.5,3.809999942779541 40.810001373291016,6.5 37.5,6.5z"></path></g></g><g transform="matrix(1,0,0,1,56,26)" opacity="1" style="display: block;"><g opacity="1" transform="matrix(1,0,0,1,0,0)"><path fill="rgb(226,232,234)" fill-opacity="1" d=" M37.5,6 C37.5,6 -37.5,6 -37.5,6 C-40.810001373291016,6 -43.5,3.309999942779541 -43.5,0 C-43.5,0 -43.5,0 -43.5,0 C-43.5,-3.309999942779541 -40.810001373291016,-6 -37.5,-6 C-37.5,-6 37.5,-6 37.5,-6 C40.810001373291016,-6 43.5,-3.309999942779541 43.5,0 C43.5,0 43.5,0 43.5,0 C43.5,3.309999942779541 40.810001373291016,6 37.5,6z"></path></g></g><g transform="matrix(1,0,0,1,155.5,32)" opacity="1" style="display: block;"><g opacity="1" transform="matrix(1,0,0,1,0,0)"><path fill="rgb(226,232,234)" fill-opacity="1" d=" M21.6200008392334,12 C21.6200008392334,12 -21.6200008392334,12 -21.6200008392334,12 C-26.799999237060547,12 -31,7.800000190734863 -31,2.619999885559082 C-31,2.619999885559082 -31,-2.619999885559082 -31,-2.619999885559082 C-31,-7.800000190734863 -26.799999237060547,-12 -21.6200008392334,-12 C-21.6200008392334,-12 21.6200008392334,-12 21.6200008392334,-12 C26.799999237060547,-12 31,-7.800000190734863 31,-2.619999885559082 C31,-2.619999885559082 31,2.619999885559082 31,2.619999885559082 C31,7.800000190734863 26.799999237060547,12 21.6200008392334,12z"></path></g></g></g><g clip-path="url(#__lottie_element_64)" style="display: block;" transform="matrix(1,0,0,1,120,146.57403564453125)" opacity="0.023917855140447777"><g transform="matrix(1,0,0,1,99.5,87)" opacity="1" style="display: block;"><g opacity="1" transform="matrix(1,0,0,1,0,0)"><path fill="rgb(255,255,255)" fill-opacity="1" d=" M86.58999633789062,87 C86.58999633789062,87 -86.58999633789062,87 -86.58999633789062,87 C-93.72000122070312,87 -99.5,81.22000122070312 -99.5,74.08999633789062 C-99.5,74.08999633789062 -99.5,-74.08999633789062 -99.5,-74.08999633789062 C-99.5,-81.22000122070312 -93.72000122070312,-87 -86.58999633789062,-87 C-86.58999633789062,-87 86.58999633789062,-87 86.58999633789062,-87 C93.72000122070312,-87 99.5,-81.22000122070312 99.5,-74.08999633789062 C99.5,-74.08999633789062 99.5,74.08999633789062 99.5,74.08999633789062 C99.5,81.22000122070312 93.72000122070312,87 86.58999633789062,87z"></path></g></g><g transform="matrix(1,0,0,1,56,47.25)" opacity="1" style="display: block;"><g opacity="1" transform="matrix(1,0,0,1,0,0)"><path fill="rgb(226,232,234)" fill-opacity="1" d=" M37.5,6.5 C37.5,6.5 -37.5,6.5 -37.5,6.5 C-40.810001373291016,6.5 -43.5,3.809999942779541 -43.5,0.5 C-43.5,0.5 -43.5,-0.5 -43.5,-0.5 C-43.5,-3.809999942779541 -40.810001373291016,-6.5 -37.5,-6.5 C-37.5,-6.5 37.5,-6.5 37.5,-6.5 C40.810001373291016,-6.5 43.5,-3.809999942779541 43.5,-0.5 C43.5,-0.5 43.5,0.5 43.5,0.5 C43.5,3.809999942779541 40.810001373291016,6.5 37.5,6.5z"></path></g></g><g transform="matrix(1,0,0,1,56,26)" opacity="1" style="display: block;"><g opacity="1" transform="matrix(1,0,0,1,0,0)"><path fill="rgb(226,232,234)" fill-opacity="1" d=" M37.5,6 C37.5,6 -37.5,6 -37.5,6 C-40.810001373291016,6 -43.5,3.309999942779541 -43.5,0 C-43.5,0 -43.5,0 -43.5,0 C-43.5,-3.309999942779541 -40.810001373291016,-6 -37.5,-6 C-37.5,-6 37.5,-6 37.5,-6 C40.810001373291016,-6 43.5,-3.309999942779541 43.5,0 C43.5,0 43.5,0 43.5,0 C43.5,3.309999942779541 40.810001373291016,6 37.5,6z"></path></g></g><g transform="matrix(1,0,0,1,155.5,32)" opacity="1" style="display: block;"><g opacity="1" transform="matrix(1,0,0,1,0,0)"><path fill="rgb(226,232,234)" fill-opacity="1" d=" M21.6200008392334,12 C21.6200008392334,12 -21.6200008392334,12 -21.6200008392334,12 C-26.799999237060547,12 -31,7.800000190734863 -31,2.619999885559082 C-31,2.619999885559082 -31,-2.619999885559082 -31,-2.619999885559082 C-31,-7.800000190734863 -26.799999237060547,-12 -21.6200008392334,-12 C-21.6200008392334,-12 21.6200008392334,-12 21.6200008392334,-12 C26.799999237060547,-12 31,-7.800000190734863 31,-2.619999885559082 C31,-2.619999885559082 31,2.619999885559082 31,2.619999885559082 C31,7.800000190734863 26.799999237060547,12 21.6200008392334,12z"></path></g></g></g><g clip-path="url(#__lottie_element_48)" style="display: block;" transform="matrix(1,0,0,1,120,171.5068359375)" opacity="0.9760821448595521"><g transform="matrix(1,0,0,1,99.5,87)" opacity="1" style="display: block;"><g opacity="1" transform="matrix(1,0,0,1,0,0)"><path fill="rgb(255,255,255)" fill-opacity="1" d=" M86.58999633789062,87 C86.58999633789062,87 -86.58999633789062,87 -86.58999633789062,87 C-93.72000122070312,87 -99.5,81.22000122070312 -99.5,74.08999633789062 C-99.5,74.08999633789062 -99.5,-74.08999633789062 -99.5,-74.08999633789062 C-99.5,-81.22000122070312 -93.72000122070312,-87 -86.58999633789062,-87 C-86.58999633789062,-87 86.58999633789062,-87 86.58999633789062,-87 C93.72000122070312,-87 99.5,-81.22000122070312 99.5,-74.08999633789062 C99.5,-74.08999633789062 99.5,74.08999633789062 99.5,74.08999633789062 C99.5,81.22000122070312 93.72000122070312,87 86.58999633789062,87z"></path></g></g><g transform="matrix(1,0,0,1,56,47.25)" opacity="1" style="display: block;"><g opacity="1" transform="matrix(1,0,0,1,0,0)"><path fill="rgb(226,232,234)" fill-opacity="1" d=" M37.5,6.5 C37.5,6.5 -37.5,6.5 -37.5,6.5 C-40.810001373291016,6.5 -43.5,3.809999942779541 -43.5,0.5 C-43.5,0.5 -43.5,-0.5 -43.5,-0.5 C-43.5,-3.809999942779541 -40.810001373291016,-6.5 -37.5,-6.5 C-37.5,-6.5 37.5,-6.5 37.5,-6.5 C40.810001373291016,-6.5 43.5,-3.809999942779541 43.5,-0.5 C43.5,-0.5 43.5,0.5 43.5,0.5 C43.5,3.809999942779541 40.810001373291016,6.5 37.5,6.5z"></path></g></g><g transform="matrix(1,0,0,1,56,26)" opacity="1" style="display: block;"><g opacity="1" transform="matrix(1,0,0,1,0,0)"><path fill="rgb(226,232,234)" fill-opacity="1" d=" M37.5,6 C37.5,6 -37.5,6 -37.5,6 C-40.810001373291016,6 -43.5,3.309999942779541 -43.5,0 C-43.5,0 -43.5,0 -43.5,0 C-43.5,-3.309999942779541 -40.810001373291016,-6 -37.5,-6 C-37.5,-6 37.5,-6 37.5,-6 C40.810001373291016,-6 43.5,-3.309999942779541 43.5,0 C43.5,0 43.5,0 43.5,0 C43.5,3.309999942779541 40.810001373291016,6 37.5,6z"></path></g></g><g transform="matrix(1,0,0,1,155.5,32)" opacity="1" style="display: block;"><g opacity="1" transform="matrix(1,0,0,1,0,0)"><path fill="rgb(226,232,234)" fill-opacity="1" d=" M21.6200008392334,12 C21.6200008392334,12 -21.6200008392334,12 -21.6200008392334,12 C-26.799999237060547,12 -31,7.800000190734863 -31,2.619999885559082 C-31,2.619999885559082 -31,-2.619999885559082 -31,-2.619999885559082 C-31,-7.800000190734863 -26.799999237060547,-12 -21.6200008392334,-12 C-21.6200008392334,-12 21.6200008392334,-12 21.6200008392334,-12 C26.799999237060547,-12 31,-7.800000190734863 31,-2.619999885559082 C31,-2.619999885559082 31,2.619999885559082 31,2.619999885559082 C31,7.800000190734863 26.799999237060547,12 21.6200008392334,12z"></path></g></g></g><g clip-path="url(#__lottie_element_32)" style="display: none;" transform="matrix(1,0,0,1,120,170)" opacity="0.9999999940735476"><g transform="matrix(1,0,0,1,99.5,87)" opacity="1" style="display: block;"><g opacity="1" transform="matrix(1,0,0,1,0,0)"><path fill="rgb(255,255,255)" fill-opacity="1" d=" M86.58999633789062,87 C86.58999633789062,87 -86.58999633789062,87 -86.58999633789062,87 C-93.72000122070312,87 -99.5,81.22000122070312 -99.5,74.08999633789062 C-99.5,74.08999633789062 -99.5,-74.08999633789062 -99.5,-74.08999633789062 C-99.5,-81.22000122070312 -93.72000122070312,-87 -86.58999633789062,-87 C-86.58999633789062,-87 86.58999633789062,-87 86.58999633789062,-87 C93.72000122070312,-87 99.5,-81.22000122070312 99.5,-74.08999633789062 C99.5,-74.08999633789062 99.5,74.08999633789062 99.5,74.08999633789062 C99.5,81.22000122070312 93.72000122070312,87 86.58999633789062,87z"></path></g></g><g transform="matrix(1,0,0,1,56,47.25)" opacity="1" style="display: block;"><g opacity="1" transform="matrix(1,0,0,1,0,0)"><path fill="rgb(226,232,234)" fill-opacity="1" d=" M37.5,6.5 C37.5,6.5 -37.5,6.5 -37.5,6.5 C-40.810001373291016,6.5 -43.5,3.809999942779541 -43.5,0.5 C-43.5,0.5 -43.5,-0.5 -43.5,-0.5 C-43.5,-3.809999942779541 -40.810001373291016,-6.5 -37.5,-6.5 C-37.5,-6.5 37.5,-6.5 37.5,-6.5 C40.810001373291016,-6.5 43.5,-3.809999942779541 43.5,-0.5 C43.5,-0.5 43.5,0.5 43.5,0.5 C43.5,3.809999942779541 40.810001373291016,6.5 37.5,6.5z"></path></g></g><g transform="matrix(1,0,0,1,56,26)" opacity="1" style="display: block;"><g opacity="1" transform="matrix(1,0,0,1,0,0)"><path fill="rgb(226,232,234)" fill-opacity="1" d=" M37.5,6 C37.5,6 -37.5,6 -37.5,6 C-40.810001373291016,6 -43.5,3.309999942779541 -43.5,0 C-43.5,0 -43.5,0 -43.5,0 C-43.5,-3.309999942779541 -40.810001373291016,-6 -37.5,-6 C-37.5,-6 37.5,-6 37.5,-6 C40.810001373291016,-6 43.5,-3.309999942779541 43.5,0 C43.5,0 43.5,0 43.5,0 C43.5,3.309999942779541 40.810001373291016,6 37.5,6z"></path></g></g><g transform="matrix(1,0,0,1,155.5,32)" opacity="1" style="display: block;"><g opacity="1" transform="matrix(1,0,0,1,0,0)"><path fill="rgb(226,232,234)" fill-opacity="1" d=" M21.6200008392334,12 C21.6200008392334,12 -21.6200008392334,12 -21.6200008392334,12 C-26.799999237060547,12 -31,7.800000190734863 -31,2.619999885559082 C-31,2.619999885559082 -31,-2.619999885559082 -31,-2.619999885559082 C-31,-7.800000190734863 -26.799999237060547,-12 -21.6200008392334,-12 C-21.6200008392334,-12 21.6200008392334,-12 21.6200008392334,-12 C26.799999237060547,-12 31,-7.800000190734863 31,-2.619999885559082 C31,-2.619999885559082 31,2.619999885559082 31,2.619999885559082 C31,7.800000190734863 26.799999237060547,12 21.6200008392334,12z"></path></g></g></g><g clip-path="url(#__lottie_element_16)" style="display: none;" transform="matrix(1,0,0,1,120,233)" opacity="5.926452502080793e-9"><g transform="matrix(1,0,0,1,99.5,87)" opacity="1" style="display: block;"><g opacity="1" transform="matrix(1,0,0,1,0,0)"><path fill="rgb(255,255,255)" fill-opacity="1" d=" M86.58999633789062,87 C86.58999633789062,87 -86.58999633789062,87 -86.58999633789062,87 C-93.72000122070312,87 -99.5,81.22000122070312 -99.5,74.08999633789062 C-99.5,74.08999633789062 -99.5,-74.08999633789062 -99.5,-74.08999633789062 C-99.5,-81.22000122070312 -93.72000122070312,-87 -86.58999633789062,-87 C-86.58999633789062,-87 86.58999633789062,-87 86.58999633789062,-87 C93.72000122070312,-87 99.5,-81.22000122070312 99.5,-74.08999633789062 C99.5,-74.08999633789062 99.5,74.08999633789062 99.5,74.08999633789062 C99.5,81.22000122070312 93.72000122070312,87 86.58999633789062,87z"></path></g></g><g transform="matrix(1,0,0,1,56,47.25)" opacity="1" style="display: block;"><g opacity="1" transform="matrix(1,0,0,1,0,0)"><path fill="rgb(226,232,234)" fill-opacity="1" d=" M37.5,6.5 C37.5,6.5 -37.5,6.5 -37.5,6.5 C-40.810001373291016,6.5 -43.5,3.809999942779541 -43.5,0.5 C-43.5,0.5 -43.5,-0.5 -43.5,-0.5 C-43.5,-3.809999942779541 -40.810001373291016,-6.5 -37.5,-6.5 C-37.5,-6.5 37.5,-6.5 37.5,-6.5 C40.810001373291016,-6.5 43.5,-3.809999942779541 43.5,-0.5 C43.5,-0.5 43.5,0.5 43.5,0.5 C43.5,3.809999942779541 40.810001373291016,6.5 37.5,6.5z"></path></g></g><g transform="matrix(1,0,0,1,56,26)" opacity="1" style="display: block;"><g opacity="1" transform="matrix(1,0,0,1,0,0)"><path fill="rgb(226,232,234)" fill-opacity="1" d=" M37.5,6 C37.5,6 -37.5,6 -37.5,6 C-40.810001373291016,6 -43.5,3.309999942779541 -43.5,0 C-43.5,0 -43.5,0 -43.5,0 C-43.5,-3.309999942779541 -40.810001373291016,-6 -37.5,-6 C-37.5,-6 37.5,-6 37.5,-6 C40.810001373291016,-6 43.5,-3.309999942779541 43.5,0 C43.5,0 43.5,0 43.5,0 C43.5,3.309999942779541 40.810001373291016,6 37.5,6z"></path></g></g><g transform="matrix(1,0,0,1,155.5,32)" opacity="1" style="display: block;"><g opacity="1" transform="matrix(1,0,0,1,0,0)"><path fill="rgb(226,232,234)" fill-opacity="1" d=" M21.6200008392334,12 C21.6200008392334,12 -21.6200008392334,12 -21.6200008392334,12 C-26.799999237060547,12 -31,7.800000190734863 -31,2.619999885559082 C-31,2.619999885559082 -31,-2.619999885559082 -31,-2.619999885559082 C-31,-7.800000190734863 -26.799999237060547,-12 -21.6200008392334,-12 C-21.6200008392334,-12 21.6200008392334,-12 21.6200008392334,-12 C26.799999237060547,-12 31,-7.800000190734863 31,-2.619999885559082 C31,-2.619999885559082 31,2.619999885559082 31,2.619999885559082 C31,7.800000190734863 26.799999237060547,12 21.6200008392334,12z"></path></g></g></g><g transform="matrix(1,0,0,1,220.14599609375,307)" opacity="1" style="display: block;"><g opacity="1" transform="matrix(1,0,0,1,0,0)"><path fill="rgb(18,156,255)" fill-opacity="1" d=" M113.21399688720703,87 C113.21399688720703,87 -112.63500213623047,87 -112.63500213623047,87 C-119.01499938964844,87 -124.30599975585938,82.05999755859375 -124.73600006103516,75.69999694824219 C-124.73600006103516,75.69999694824219 -135.11599731445312,-74.73999786376953 -135.11599731445312,-74.73999786376953 C-135.5760040283203,-81.37000274658203 -130.3159942626953,-87 -123.6760025024414,-87 C-123.6760025024414,-87 11.954000473022461,-86.98999786376953 11.954000473022461,-86.98999786376953 C18.5939998626709,-86.98999786376953 23.985000610351562,-81.62999725341797 24.03499984741211,-75 C24.03499984741211,-75 123.71399688720703,-75 123.71399688720703,-75 C130.36399841308594,-75 135.61399841308594,-69.3499984741211 135.11399841308594,-62.720001220703125 C135.11399841308594,-62.720001220703125 124.83499908447266,76.20999908447266 124.83499908447266,76.20999908447266 C124.38500213623047,82.29000091552734 119.31400299072266,87 113.21399688720703,87z"></path></g></g><g transform="matrix(1,0,0,1,220.00100708007812,121)" opacity="1" style="display: block;"><g opacity="1" transform="matrix(1,0,0,1,0,0)"><path stroke-linecap="round" stroke-linejoin="miter" fill-opacity="0" stroke-miterlimit="4" stroke="rgb(246,247,248)" stroke-opacity="1" stroke-width="40.752166103322" d=" M170.00100708007812,74 C157.88099670410156,-9.6899995803833 87.0510025024414,-74 0.0010000000474974513,-74 C-87.05899810791016,-74 -157.88900756835938,-9.699999809265137 -169.99899291992188,74"></path></g></g><g transform="matrix(1,0,0,1,220.00100708007812,121)" opacity="1" style="display: block;"><g opacity="1" transform="matrix(1,0,0,1,0,0)"><path stroke-linecap="round" stroke-linejoin="miter" fill-opacity="0" stroke-miterlimit="4" stroke="rgb(39,114,204)" stroke-opacity="1" stroke-width="40.752166103322" d=" M-167.01800537109375,58.40700149536133 C-167.61300659179688,60.9010009765625 -168.15499877929688,63.41699981689453 -168.64300537109375,65.9520034790039"></path></g></g><g transform="matrix(-0.997178316116333,-0.07506947219371796,-0.07506947219371796,0.997178316116333,220.06500244140625,306.3999938964844)" opacity="1" style="display: block;"><g opacity="1" transform="matrix(1,0,0,1,0,0)"><path fill="rgb(18,156,255)" fill-opacity="1" d=" M27.30500030517578,0 C27.30500030517578,15.0600004196167 15.0649995803833,27.309999465942383 -0.004999999888241291,27.309999465942383 C-4.605000019073486,27.309999465942383 -8.975000381469727,26.170000076293945 -12.744999885559082,24.1200008392334 C-12.744999885559082,24.1200008392334 -19.385000228881836,30.760000228881836 -19.385000228881836,30.760000228881836 C-13.78499984741211,34.310001373291016 -7.144999980926514,36.400001525878906 0.004999999888241291,36.400001525878906 C20.125,36.400001525878906 36.415000915527344,20.110000610351562 36.415000915527344,-0.009999999776482582 C36.415000915527344,-0.009999999776482582 50.064998626708984,-0.009999999776482582 50.064998626708984,-0.009999999776482582 C50.064998626708984,-0.009999999776482582 31.864999771118164,-18.209999084472656 31.864999771118164,-18.209999084472656 C31.864999771118164,-18.209999084472656 13.664999961853027,-0.009999999776482582 13.664999961853027,-0.009999999776482582 C13.664999961853027,-0.009999999776482582 27.30500030517578,-0.009999999776482582 27.30500030517578,-0.009999999776482582 C27.30500030517578,-0.009999999776482582 27.30500030517578,0 27.30500030517578,0z M-36.415000915527344,0 C-36.415000915527344,0 -50.064998626708984,0 -50.064998626708984,0 C-50.064998626708984,0 -31.864999771118164,18.200000762939453 -31.864999771118164,18.200000762939453 C-31.864999771118164,18.200000762939453 -13.664999961853027,0 -13.664999961853027,0 C-13.664999961853027,0 -27.315000534057617,0 -27.315000534057617,0 C-27.315000534057617,-15.0600004196167 -15.074999809265137,-27.309999465942383 -0.004999999888241291,-27.309999465942383 C4.59499979019165,-27.309999465942383 8.96500015258789,-26.170000076293945 12.734999656677246,-24.1200008392334 C12.734999656677246,-24.1200008392334 19.375,-30.760000228881836 19.375,-30.760000228881836 C13.774999618530273,-34.310001373291016 7.135000228881836,-36.400001525878906 -0.014999999664723873,-36.400001525878906 C-20.125,-36.40999984741211 -36.415000915527344,-20.1200008392334 -36.415000915527344,0z"></path></g></g></g></svg>