<svg width="800" height="800" viewBox="0 0 800 800" fill="none" xmlns="http://www.w3.org/2000/svg">
    <path d="M575.531 340.516C611.069 340.868 645.051 355.141 670.181 380.271C695.312 405.401 709.586 439.383 709.939 474.92C710.39 510.004 695.804 543.531 672.079 568.434C646.484 595.299 611.929 608.859 575.531 609.327C522.248 610.012 522.184 692.701 575.531 692.016C694.792 690.481 791.092 594.18 792.627 474.92C794.162 355.651 692.48 259.329 575.531 257.827C522.184 257.141 522.248 339.83 575.531 340.516ZM222.861 608.834C187.323 608.481 153.34 594.208 128.21 569.077C103.079 543.947 88.8054 509.964 88.4529 474.427C88.0022 439.341 102.586 405.815 126.313 380.907C151.906 354.043 186.46 340.488 222.86 340.019C276.141 339.334 276.207 256.643 222.86 257.33C103.597 258.863 7.29748 355.162 5.76467 474.427C4.23186 593.695 105.91 690.02 222.861 691.522C276.208 692.206 276.142 609.518 222.861 608.834Z" fill="black" fill-opacity="0.26"/>
    <path d="M265.375 300.159C265.726 264.622 279.999 230.639 305.129 205.509C330.259 180.379 364.242 166.106 399.779 165.755C434.863 165.304 468.39 179.889 493.293 203.616C520.159 229.209 533.717 263.76 534.186 300.159C534.871 353.44 617.561 353.506 616.876 300.159C615.342 180.899 519.039 84.5992 399.779 83.0664C280.51 81.5336 184.19 183.209 182.687 300.159C181.999 353.506 264.69 353.44 265.375 300.159Z" fill="black" fill-opacity="0.26"/>
    <path d="M425.812 369.592C438.735 382.516 438.735 403.464 425.812 416.386L329.804 512.398C316.88 525.318 295.931 525.318 283.01 512.398C270.087 499.471 270.087 478.521 283.01 465.602L379.019 369.592C391.939 356.669 412.89 356.669 425.812 369.592Z" fill="black" fill-opacity="0.26"/>
    <path d="M379.039 369.592C391.959 356.671 412.91 356.671 425.83 369.592L521.842 465.605C534.763 478.521 534.763 499.475 521.842 512.398C508.92 525.319 487.967 525.319 475.047 512.398L379.039 416.39C366.112 403.466 366.112 382.516 379.039 369.592Z" fill="black" fill-opacity="0.26"/>
    <path d="M401.597 495.388C420.326 495.388 435.505 510.57 435.505 529.294V668.423C435.505 687.148 420.324 702.328 401.597 702.328C382.876 702.328 367.694 687.147 367.694 668.423V529.294C367.695 510.569 382.876 495.388 401.597 495.388Z" fill="black" fill-opacity="0.26"/>
</svg>
