<svg width="74" height="60" viewBox="0 0 74 60" fill="none" xmlns="http://www.w3.org/2000/svg">
    <path d="M38.4219 14.6021C38.0093 14.4866 37.7744 14.0794 37.8974 13.6921C39.3305 9.17107 43.7937 5.85156 49.1044 5.85156C49.5347 5.85156 49.8838 6.17927 49.8838 6.5833C49.8838 6.98732 49.5348 7.31504 49.1044 7.31504C44.6534 7.31504 40.6594 10.1087 39.3912 14.1091C39.2693 14.4959 38.8362 14.718 38.422 14.602L38.4219 14.6021Z" fill="#483EA8"/>
    <path d="M60.0156 42.4384H55.3392C54.9088 42.4384 54.5597 42.1107 54.5597 41.7067C54.5597 41.3027 54.9088 40.9749 55.3392 40.9749H60.0156C66.4619 40.9749 71.7068 36.0509 71.7068 29.999C71.7068 23.9471 66.4619 19.023 60.0156 19.023H59.9031C59.6771 19.023 59.4622 18.9311 59.3141 18.7706C59.166 18.6101 59.0992 18.3974 59.1315 18.1873C59.2011 17.7315 59.2362 17.2737 59.2362 16.8279C59.2362 11.5829 54.6904 7.31531 49.1037 7.31531C46.9302 7.31531 44.8575 7.95296 43.1094 9.15978C42.7252 9.42478 42.1796 9.30718 41.9575 8.91047C37.0066 0.0596993 24.0752 -1.12887 17.371 6.57053C14.5468 9.81417 13.4371 14.0336 14.3263 18.146C14.4243 18.6002 14.0541 19.0236 13.5625 19.0236H13.2501C6.80387 19.0236 1.55891 23.9477 1.55891 29.9996C1.55891 36.0514 6.80387 40.9755 13.2501 40.9755H17.9266C18.3569 40.9755 18.706 41.3032 18.706 41.7072C18.706 42.1113 18.3569 42.439 17.9266 42.439H13.2501C5.94417 42.439 0 36.8585 0 29.9995C0 23.3329 5.61509 17.8742 12.6383 17.5731C11.9786 13.3066 13.2401 9.00295 16.164 5.64437C23.3419 -2.5996 37.0977 -1.67556 42.9126 7.51707C44.7676 6.42522 46.8904 5.85244 49.1035 5.85244C55.8721 5.85244 61.2357 11.261 60.7663 17.58C67.7248 17.9463 73.2654 23.3763 73.2654 29.999C73.2654 36.8585 67.3212 42.4384 60.0152 42.4384L60.0156 42.4384Z" fill="#483EA8"/>
    <path d="M36.5284 59.587C25.784 59.587 17.0427 51.3806 17.0427 41.2935C17.0427 31.2065 25.7839 23 36.5284 23C47.2728 23 56.014 31.2064 56.014 41.2935C56.014 51.3804 47.2728 59.587 36.5284 59.587V59.587ZM36.5284 24.4638C26.6437 24.4638 18.6019 32.0137 18.6019 41.2935C18.6019 50.5733 26.6439 58.1232 36.5284 58.1232C46.4128 58.1232 54.4548 50.5732 54.4548 41.2935C54.4548 32.0136 46.4128 24.4638 36.5284 24.4638V24.4638Z" fill="#483EA8"/>
    <path d="M36.164 48.6577C36.164 49.0451 36.4958 49.3434 36.8846 49.3434C37.2734 49.3434 37.6052 49.0455 37.6052 48.6577V34.7291C37.6052 34.3417 37.2734 34.0434 36.8846 34.0434C36.4957 34.0434 36.164 34.3417 36.164 34.7291V48.6577Z" fill="#483EA8" stroke="#483EA8" stroke-width="0.3"/>
    <path d="M40.9432 39.5044C41.0843 39.6369 41.2682 39.702 41.4494 39.702H41.4494C41.6302 39.702 41.8142 39.6375 41.9555 39.5044C42.2416 39.2359 42.2416 38.7966 41.9555 38.5281L37.3906 34.2424C37.11 33.979 36.6585 33.9789 36.3782 34.2425C36.3782 34.2425 36.3782 34.2425 36.3782 34.2425L31.8133 38.5281C31.5273 38.7966 31.5273 39.2359 31.8133 39.5044C32.0939 39.7679 32.5454 39.768 32.8258 39.5044L36.8844 35.694L40.9432 39.5044Z" fill="#483EA8" stroke="#483EA8" stroke-width="0.3"/>
</svg>
